<?xml version="1.0" encoding="UTF-8"?>
<svg id="Layer_1" xmlns="http://www.w3.org/2000/svg" xmlns:xlink="http://www.w3.org/1999/xlink" version="1.1" viewBox="0 0 1920 1080">
  <!-- Generator: Adobe Illustrator 29.1.0, SVG Export Plug-In . SVG Version: 2.1.0 Build 142)  -->
  <defs>
    <style>
      .st0 {
        fill: url(#linear-gradient);
      }

      .st1 {
        stroke: #273773;
        stroke-miterlimit: 10;
        stroke-width: .5px;
      }
    </style>
    <linearGradient id="linear-gradient" x1="664" y1="226.1" x2="1262.47" y2="421.95" gradientUnits="userSpaceOnUse">
      <stop offset="0" stop-color="#5c3fbf"/>
      <stop offset=".23" stop-color="#5b39bc"/>
      <stop offset=".51" stop-color="#5b2ab6"/>
      <stop offset=".82" stop-color="#5a11ac"/>
      <stop offset="1" stop-color="#5a00a6"/>
    </linearGradient>
  </defs>
  <g>
    <g>
      <path d="M585.02,994.74c-10.94-6.83-19.18-16.36-24.73-28.59-5.55-12.22-8.32-26.45-8.32-42.7,0-18.01,3.38-33.05,10.13-45.11,6.75-12.06,15.76-20.99,27.02-26.78,11.26-5.79,23.72-8.69,37.39-8.69,15.6,0,28.87,3.42,39.81,10.25,10.94,6.84,19.18,16.37,24.73,28.59,5.55,12.22,8.32,26.46,8.32,42.7,0,18.01-3.38,33.05-10.13,45.11-6.76,12.06-15.76,20.99-27.02,26.78-11.26,5.79-23.73,8.68-37.39,8.68-15.6,0-28.87-3.41-39.81-10.25ZM653.41,978.33c7.64-5.22,13.35-12.42,17.13-21.59,3.78-9.17,5.67-19.86,5.67-32.09s-1.81-23.52-5.43-32.93c-3.62-9.41-9.13-16.77-16.53-22.07-7.4-5.31-16.65-7.96-27.74-7.96s-20.95,2.62-28.59,7.84c-7.64,5.23-13.35,12.42-17.13,21.59-3.78,9.17-5.67,19.86-5.67,32.09s1.81,23.52,5.43,32.93c3.62,9.41,9.13,16.77,16.53,22.07,7.4,5.31,16.65,7.96,27.74,7.96s20.95-2.61,28.59-7.84Z"/>
      <path d="M777.65,857.95c-2.98,3.94-4.46,9.53-4.46,16.77v21.71h32.81l-2.17,16.4h-30.64v89.26h-20.75v-89.26h-19.3v-16.4h19.3v-21.23c0-8.04,1.53-15.12,4.58-21.23,3.05-6.11,7.44-10.86,13.15-14.23,5.71-3.38,12.42-5.07,20.14-5.07,8.84,0,16.97,1.37,24.37,4.1l-5.31,16.4c-5.95-2.09-11.98-3.14-18.09-3.14s-10.66,1.97-13.63,5.91Z"/>
      <path d="M873.67,857.95c-2.98,3.94-4.46,9.53-4.46,16.77v21.71h32.81l-2.17,16.4h-30.64v89.26h-20.75v-89.26h-19.3v-16.4h19.3v-21.23c0-8.04,1.53-15.12,4.58-21.23,3.05-6.11,7.44-10.86,13.15-14.23,5.71-3.38,12.42-5.07,20.14-5.07,8.84,0,16.97,1.37,24.37,4.1l-5.31,16.4c-5.95-2.09-11.98-3.14-18.09-3.14s-10.66,1.97-13.63,5.91Z"/>
      <path d="M1019.74,952.88h-73.58c.16,12.06,3.09,20.83,8.81,26.3,5.71,5.47,13.06,8.2,22.07,8.2,6.43,0,12.02-.8,16.77-2.41,4.74-1.61,10.01-4.1,15.8-7.48l7.96,14.72c-13.19,8.53-27.02,12.79-41.49,12.79-15.44,0-27.78-4.3-37.03-12.91-9.25-8.6-13.87-22.23-13.87-40.89,0-10.61,1.93-20.26,5.79-28.95,3.86-8.68,9.61-15.64,17.25-20.87,7.64-5.23,17.01-7.84,28.11-7.84,9.33,0,17.29,1.89,23.88,5.67,6.59,3.78,11.58,8.97,14.96,15.56,3.38,6.6,5.07,14.15,5.07,22.68l-.48,15.44ZM956.66,917.18c-4.75,4.99-7.84,11.82-9.29,20.51h52.59v-.96c0-9-2.05-15.76-6.15-20.26-4.1-4.5-9.93-6.76-17.49-6.76-8.36,0-14.92,2.5-19.66,7.48Z"/>
      <path d="M1122.76,894.02c2.25.32,4.66.81,7.24,1.45l-3.86,21.47c-5.47-1.93-10.46-2.89-14.96-2.89-5.15,0-9.89,1.13-14.23,3.38-4.34,2.25-8.53,6.51-12.54,12.79v71.89h-20.75v-105.91l20.75-2.17v15.2c4.02-5.15,8.68-9.05,13.99-11.7s10.94-3.98,16.89-3.98c2.73,0,5.22.16,7.48.48Z"/>
      <path d="M1168.59,1002.1v-165.98l20.75-2.41v168.39h-20.75Z"/>
      <path d="M1330.23,896.43v1.45l-40.29,111.7c-3.54,9.81-7.32,17.65-11.34,23.52-4.02,5.87-8.56,10.13-13.63,12.79-5.07,2.65-11.06,3.98-17.97,3.98s-14.07-1.21-20.99-3.62l5.55-15.92c4.66,1.45,9.25,2.17,13.75,2.17,3.7,0,6.83-.57,9.41-1.69,2.57-1.13,5.1-3.3,7.6-6.51,2.49-3.22,4.95-8.04,7.36-14.47l2.9-7.72h-5.55l-40.53-104.22v-1.45h21.95l24.85,67.55,2.65,7.24,3.86,11.34,6.03-18.58,23.16-67.55h21.23Z"/>
    </g>
    <g>
      <path class="st1" d="M637.82,809.35c-6.7,0-10.06,3.35-10.06,10.06s3.35,10.26,10.06,10.26,9.85-3.42,9.85-10.26-3.28-10.06-9.85-10.06Z"/>
      <path class="st1" d="M611.76,809.35c-6.7,0-10.06,3.35-10.06,10.06s3.35,10.26,10.06,10.26,9.85-3.42,9.85-10.26-3.28-10.06-9.85-10.06Z"/>
      <path class="st1" d="M709.04,715.35c0,14.91-7.11,22.37-21.34,22.37h-30.99l-8.62,16.62h20.52c-1.64,7.11-6.29,12.72-13.96,16.83-7.66,4.1-17.38,6.16-29.14,6.16-13.96,0-24.83-3.49-32.63-10.47-7.94-6.98-11.9-16.55-11.9-28.73,0-11.22,3.08-21.68,9.24-31.4l-17.03,3.69c-5.75,8.21-8.62,18.06-8.62,29.55,0,13.68,4.03,25.17,12.11,34.48,10.94,12.59,27.22,18.88,48.84,18.88,16.96,0,30.92-3.35,41.87-10.06,11.77-7.25,18.33-16.9,19.7-28.94h2.05c11.08,0,20.04-3.28,26.88-9.85,7.25-7.11,10.88-16.76,10.88-28.94v-93.58l-17.85,9.44v83.94Z"/>
      <path class="st1" d="M1144.11,641.68c6.57,0,9.85-3.42,9.85-10.26s-3.28-10.06-9.85-10.06-10.06,3.35-10.06,10.06,3.35,10.26,10.06,10.26Z"/>
      <path class="st1" d="M1143.7,662.61c-11.36,0-20.46,3.69-27.29,11.08-7.8,8.35-11.7,19.98-11.7,34.89,0,12.45,3.15,22.16,9.44,29.14h-300.04c-12.04,0-18.68-5.47-19.91-16.42v-56.03l-.2.21v-.21l-17.65,9.44v69.98c0,10.4-2.46,18.54-7.39,24.42-4.93,5.88-11.77,8.82-20.52,8.82-6.98,0-13.96-1.92-20.93-5.75v15.39c7.8,4.1,15.8,6.16,24.01,6.16,11.35,0,20.79-3.69,28.32-11.08,8.21-8.07,12.93-18.88,14.16-32.43,5.06,2.74,11.08,4.1,18.06,4.1h331.23c10.67,0,19.22-3.08,25.65-9.24,6.57-6.57,9.92-15.53,10.06-26.88v-19.5c0-10.4-2.74-18.81-8.21-25.24-6.43-7.25-15.46-10.88-27.09-10.88ZM1161.35,718.02c0,13.13-6.29,19.7-18.88,19.7-6.16,0-11.08-2.67-14.78-8-3.69-5.34-5.54-12.52-5.54-21.55s1.91-16.31,5.75-21.45c3.83-5.13,9.1-7.7,15.8-7.7,11.77,0,17.65,6.84,17.65,20.52v18.47Z"/>
      <path class="st1" d="M1246.92,662.61c-11.36,0-20.52,3.69-27.5,11.08-7.8,8.21-11.7,19.57-11.7,34.07,0,11.77,2.94,21.55,8.82,29.35,6.98,9.17,16.55,13.75,28.73,13.75,7.52,0,13.89-1.03,19.09-3.08-.55,9.3-3.22,16.52-8,21.65-4.79,5.13-11.22,7.7-19.29,7.7-7.12,0-14.3-1.92-21.55-5.75v15.6c7.52,3.97,15.53,5.95,24.01,5.95,12.72,0,22.91-4.24,30.58-12.72,8.07-9.03,12.11-21.28,12.11-36.73v-44.74c0-10.4-2.81-18.81-8.41-25.24-6.29-7.25-15.26-10.88-26.88-10.88ZM1264.37,728.08c-3.28,5.06-9.44,7.59-18.47,7.59-6.43,0-11.53-2.57-15.29-7.7-3.76-5.13-5.64-12.01-5.64-20.62s1.95-15.66,5.85-20.73c3.9-5.06,9.27-7.59,16.11-7.59,11.63,0,17.44,6.84,17.44,20.52v28.53Z"/>
      <path class="st1" d="M1326.14,610.28c-1.92-2.32-2.87-4.65-2.87-6.98,0-4.51,2.53-6.77,7.59-6.77,2.74,0,5.61,1.16,8.62,3.49v-9.03c-3.15-2.19-6.43-3.28-9.85-3.28-4.1,0-7.66,1.47-10.67,4.41-3.01,2.94-4.51,6.46-4.51,10.57,0,2.6.68,5.13,2.05,7.59h-5.54l-4.72,8.82h33.86l4.72-8.82h-18.68Z"/>
      <polygon class="st1" points="1317.11 754.35 1334.76 754.35 1334.76 630.19 1317.11 639.63 1317.11 754.35"/>
    </g>
  </g>
  <path class="st0" d="M1262.67,129.66c-.69-3.06-1.65-6.51-2.95-10.55-1.76-5.48-4.47-10.9-8.08-16.1-3.55-5.13-8.25-10.05-13.95-14.59-13.63-10.86-28.79-16.36-45.08-16.36-1.87,0-3.78.08-5.67.22-15.78,1.28-31.64,6.4-47.18,15.24-14.17,8.09-27.75,18.14-40.4,29.89-5.21,4.85-18.1,19.14-70.86,85.42-.51-7.37-2.03-15.35-4.93-23.97-8.44-25.1-26.09-48.47-52.46-69.48-30.63-24.4-63.24-36.77-96.95-36.77-5.81,0-11.72.37-17.57,1.11-39.74,4.98-75.59,27.2-106.52,66.03-20.37,25.58-33.69,51.65-39.57,77.49-6.11,26.83-4.89,52.49,3.62,76.28,8.46,23.68,23.48,44.23,44.64,61.08l29.28,23.32c-44.18,55.65-55.55,68.64-58.33,71.3-8.55,8.15-19.11,15.43-31.4,21.62-11.26,5.67-25.46,8.82-42.18,9.36-6.95.23-13.44,3.54-17.7,9.05-4.26,5.5-5.83,12.62-4.3,19.41.69,3.07,1.66,6.52,2.95,10.55,1.76,5.48,4.48,10.9,8.08,16.1,3.55,5.13,8.25,10.05,13.95,14.59,13.63,10.86,28.79,16.36,45.08,16.36,1.87,0,3.78-.08,5.67-.22,15.78-1.28,31.64-6.4,47.18-15.24,14.17-8.09,27.75-18.14,40.4-29.9,5.21-4.85,18.1-19.14,70.86-85.41.51,7.37,2.03,15.35,4.93,23.97,8.44,25.09,26.09,48.47,52.46,69.48,30.63,24.4,63.25,36.77,96.95,36.77,5.81,0,11.72-.37,17.57-1.11,39.75-4.98,75.59-27.2,106.52-66.03,20.37-25.57,33.69-51.65,39.57-77.49,6.11-26.83,4.89-52.49-3.62-76.28-8.46-23.68-23.48-44.23-44.64-61.08l-29.28-23.32c44.18-55.65,55.55-68.64,58.33-71.3,8.55-8.15,19.11-15.43,31.4-21.62,11.26-5.67,25.46-8.82,42.18-9.36,6.95-.23,13.44-3.54,17.7-9.05,4.26-5.5,5.83-12.62,4.3-19.4ZM781.54,503.82c-11.41,10.6-23.43,19.5-36.05,26.7-12.63,7.18-25.13,11.26-37.49,12.26-1.29.1-2.57.15-3.84.15-10.91,0-21.09-3.75-30.54-11.28-3.92-3.13-7.03-6.33-9.31-9.64-2.29-3.31-3.98-6.61-5.04-9.92-1.06-3.31-1.87-6.17-2.41-8.56,20.21-.66,37.53-4.6,51.93-11.85,14.39-7.26,26.73-15.78,37-25.58,10.28-9.8,68.72-84.09,74.96-91.93l-47.48-37.82c-17.78-14.16-30.19-31.06-37.21-50.69-7.03-19.64-7.97-40.73-2.84-63.24,5.13-22.52,16.82-45.22,35.07-68.14,27.13-34.06,57.52-53.2,91.18-57.42,4.92-.62,9.8-.93,14.66-.93,28.42,0,55.9,10.56,82.41,31.68,22.9,18.24,37.87,37.81,44.89,58.68,7.03,20.87,4.66,38.69-7.1,53.46l-107.69,135.19-25.21,31.65c-8.4,10.55-68.5,86.6-79.92,97.23ZM1187.98,146.65c-14.39,7.26-26.73,15.78-37,25.58-10.27,9.8-68.72,84.09-74.96,91.93l47.48,37.82c17.78,14.16,30.19,31.06,37.21,50.69,7.03,19.64,7.97,40.73,2.84,63.24-5.13,22.52-16.82,45.22-35.07,68.14-27.13,34.06-57.52,53.2-91.18,57.42-4.92.62-9.8.93-14.66.93-28.42,0-55.9-10.56-82.41-31.68-22.9-18.24-37.87-37.81-44.89-58.68-7.03-20.87-4.66-38.69,7.1-53.46l107.69-135.19,25.21-31.65c8.4-10.55,68.5-86.6,79.91-97.23,11.41-10.6,23.43-19.5,36.05-26.7,12.63-7.18,25.13-11.26,37.49-12.26,1.29-.1,2.57-.15,3.84-.15,10.91,0,21.09,3.75,30.54,11.28,3.92,3.13,7.03,6.33,9.31,9.64,2.29,3.31,3.98,6.61,5.04,9.92,1.06,3.31,1.87,6.17,2.41,8.56-20.21.66-37.53,4.6-51.93,11.85ZM943.12,430.99c-4.55,5.72-5.22,12.58-1.99,20.58,3.24,8,11.34,17.17,24.3,27.48,15.56,12.4,31.39,18.59,47.48,18.59,4.48,0,8.97-.48,13.49-1.44,20.76-4.4,41.22-19.27,61.38-44.58,19.94-25.03,29.61-48.61,29.02-70.74-.58-22.15-11.28-41.5-32.08-58.07l-33.91-27.01-107.69,135.19ZM1070.18,341.07c15.28,12.17,22.9,25.4,23.29,40.43.44,16.4-7.62,35.1-23.95,55.6-16.62,20.86-32.75,33.07-47.97,36.29-2.92.62-5.82.93-8.65.93-10.76,0-21.53-4.42-32.95-13.51-12.21-9.72-15.9-15.41-16.92-17.38l91.48-114.84,15.67,12.48ZM955.65,186.76c-3.24-8-11.34-17.17-24.3-27.48-15.56-12.4-31.39-18.59-47.48-18.59-4.48,0-8.97.48-13.49,1.44-20.76,4.4-41.22,19.27-61.38,44.58-19.94,25.03-29.61,48.61-29.02,70.74.58,22.15,11.28,41.5,32.08,58.07l33.91,27.01,107.69-135.19c4.55-5.72,5.22-12.58,1.99-20.58ZM842.27,309.75l-15.67-12.48c-15.28-12.17-22.9-25.4-23.29-40.43-.44-16.4,7.62-35.1,23.94-55.6,16.62-20.86,32.76-33.07,47.97-36.29,2.92-.62,5.82-.93,8.65-.93,10.76,0,21.53,4.42,32.95,13.51,12.21,9.72,15.9,15.41,16.92,17.38l-91.48,114.84Z"/>
</svg>