<?xml version="1.0" encoding="UTF-8"?>
<svg id="Layer_2" xmlns="http://www.w3.org/2000/svg" viewBox="0 0 758.88 596.48">

  <g id="Layer_3">
    <g>
      <path
        d="M672.19,30c13.07,0,25.28,4.5,36.61,13.52,4.7,3.74,8.42,7.59,11.16,11.55,2.75,3.96,4.77,7.93,6.04,11.89,1.27,3.97,2.24,7.4,2.88,10.27-24.22.79-44.98,5.51-62.25,14.2-17.25,8.7-32.04,18.92-44.35,30.66-12.31,11.76-82.37,100.8-89.85,110.2l56.91,45.33c21.31,16.98,36.19,37.24,44.6,60.77,8.42,23.54,9.55,48.81,3.4,75.8-6.14,26.99-20.16,54.21-42.04,81.68-32.52,40.82-68.95,63.78-109.3,68.83-5.89.74-11.75,1.11-17.58,1.11-34.07,0-67-12.66-98.78-37.98-27.45-21.86-45.4-45.32-53.81-70.33-8.42-25.02-5.58-46.38,8.52-64.08l129.08-162.05,30.22-37.94c10.07-12.64,82.11-103.8,95.8-116.54,13.67-12.71,28.08-23.37,43.2-32.01,15.14-8.6,30.13-13.5,44.94-14.7,1.54-.12,3.07-.18,4.6-.18M456.78,512.18c5.36,0,10.75-.57,16.17-1.72,24.88-5.28,49.41-23.1,73.58-53.44,23.89-30,35.49-58.27,34.78-84.8-.69-26.55-13.52-49.75-38.45-69.61l-40.66-32.38-129.08,162.05c-5.46,6.85-6.26,15.07-2.38,24.67,3.88,9.59,13.6,20.58,29.12,32.94,18.65,14.86,37.63,22.29,56.92,22.29M672.19,0c-2.29,0-4.62.09-6.93.27-.03,0-.06,0-.1,0-19.14,1.55-38.43,7.78-57.33,18.52-.02.01-.04.03-.07.04-17.1,9.77-33.5,21.91-48.74,36.09-6.59,6.14-23.32,24.72-94.85,114.81-1.75,2.2-3.1,3.91-3.98,5.01l-30.22,37.94-129.08,162.05c-14.29,17.94-28.23,48.52-13.49,92.34,10.24,30.46,31.63,58.8,63.55,84.23,37.07,29.53,76.59,44.51,117.47,44.51,7.05,0,14.22-.45,21.32-1.34,48.18-6.03,91.59-32.91,129.03-79.9,24.62-30.91,40.71-62.44,47.83-93.72,7.41-32.52,5.93-63.67-4.41-92.56-10.27-28.74-28.49-53.68-54.15-74.13l-33.51-26.69c53.67-67.58,65.76-81.07,68.48-83.69,10.08-9.62,22.58-18.22,37.13-25.56,13.22-6.65,29.95-10.36,49.72-11,8.93-.29,17.26-4.55,22.73-11.6s7.51-16.19,5.57-24.91c-.83-3.7-2-7.92-3.59-12.88-2.17-6.78-5.52-13.44-9.94-19.82h0c-4.4-6.36-10.17-12.4-17.15-17.95-16.71-13.3-35.31-20.05-55.29-20.05h0ZM399.45,447.37l107.52-134.99,17.2,13.69c23.73,18.91,26.86,35.83,27.15,46.92.51,19.17-8.99,41.14-28.26,65.33-19.61,24.61-38.57,39.01-56.34,42.78-3.34.71-6.68,1.07-9.94,1.07-12.42,0-24.92-5.15-38.23-15.75-12.5-9.96-17.34-16.24-19.1-19.06h0Z" />
      <path
        d="M290.45,30.66c34.08,0,67.01,12.66,98.79,37.98,27.45,21.86,45.4,45.33,53.81,70.34,8.42,25.01,5.58,46.37-8.52,64.07l-129.08,162.05-30.22,37.94c-10.07,12.64-82.11,103.81-95.8,116.55-13.67,12.7-28.08,23.37-43.2,32-15.14,8.61-30.13,13.51-44.94,14.71-1.54.12-3.07.18-4.6.18-13.07,0-25.28-4.5-36.61-13.52-4.7-3.75-8.42-7.59-11.16-11.55-2.75-3.97-4.77-7.93-6.04-11.9-1.27-3.97-2.24-7.39-2.88-10.26,24.22-.79,44.98-5.52,62.25-14.21,17.25-8.7,32.04-18.92,44.35-30.66,12.31-11.75,82.37-100.8,89.85-110.19l-56.91-45.34c-21.31-16.98-36.19-37.23-44.6-60.76-8.42-23.54-9.55-48.82-3.4-75.81,6.14-26.99,20.16-54.2,42.04-81.68,32.52-40.82,68.95-63.77,109.3-68.83,5.89-.74,11.75-1.11,17.57-1.11M256.68,326.25l129.08-162.05c5.46-6.85,6.26-15.08,2.38-24.68-3.88-9.58-13.59-20.57-29.12-32.94-18.65-14.86-37.63-22.29-56.92-22.29-5.36,0-10.75.58-16.17,1.73-24.88,5.27-49.41,23.09-73.58,53.44-23.89,30-35.49,58.26-34.78,84.8.69,26.55,13.52,49.74,38.45,69.6l40.66,32.39M290.45.66c-7.04,0-14.21.45-21.31,1.34-48.19,6.04-91.6,32.93-129.02,79.9-24.63,30.93-40.72,62.46-47.83,93.72-7.41,32.52-5.93,63.67,4.41,92.57,10.27,28.73,28.49,53.67,54.15,74.12l33.51,26.7c-51.66,65.05-65.13,80.45-68.47,83.68-10.09,9.63-22.59,18.23-37.14,25.57-13.23,6.66-29.97,10.37-49.72,11.01-8.93.29-17.26,4.54-22.73,11.6s-7.51,16.19-5.57,24.91c.82,3.68,1.99,7.89,3.59,12.87,2.16,6.75,5.51,13.43,9.95,19.84,4.37,6.31,10.13,12.35,17.11,17.92,16.74,13.32,35.34,20.07,55.32,20.07,2.29,0,4.62-.09,6.93-.27.03,0,.07,0,.1,0,19.16-1.55,38.45-7.79,57.35-18.53,17.1-9.76,33.51-21.9,48.79-36.1,6.6-6.14,23.31-24.71,94.81-114.75,1.78-2.24,3.15-3.97,4.04-5.08l30.22-37.94,129.08-162.05c14.29-17.94,28.23-48.53,13.49-92.33-10.25-30.47-31.63-58.81-63.55-84.24C370.86,15.64,331.33.66,290.45.66h0ZM251.91,284.09l-17.19-13.7c-23.74-18.91-26.86-35.83-27.15-46.92-.51-19.17,8.99-41.14,28.26-65.33,19.61-24.62,38.56-39.02,56.33-42.78,3.38-.72,6.72-1.08,9.95-1.08,12.42,0,24.92,5.15,38.23,15.75,12.5,9.96,17.34,16.24,19.1,19.06l-107.52,134.99h0Z" />
    </g>
  </g>
</svg>